<svg width="178" height="32" viewBox="0 0 178 32" fill="none" xmlns="http://www.w3.org/2000/svg">
<path d="M31.8218 12.0522V20.0653C25.494 20.0653 20.3221 24.9999 19.9238 31.2287V31.2483C19.9042 31.4967 19.8977 31.745 19.8977 31.9999H11.9243C11.9243 31.7516 11.9178 31.5163 11.8982 31.2744V31.2483C12.0549 27.0261 13.5242 23.1372 15.9143 19.9803C17.0505 18.4705 18.3957 17.1307 19.9107 16C23.2346 13.5163 27.3551 12.0522 31.8218 12.0522Z" fill="#6BBFED"/>
<path d="M15.9141 19.9803C13.524 23.1372 12.0547 27.0261 11.898 31.2483C11.5127 25.013 6.33428 19.9477 0 19.9477C4.46665 19.9477 8.58719 18.4836 11.9111 16C13.4261 17.1307 14.7713 18.4705 15.9141 19.9803Z" fill="#A8C6E8"/>
<path d="M19.9367 0C19.9367 0.254901 19.9302 0.503267 19.9237 0.751632C19.9041 0.503267 19.8975 0.254901 19.8975 0H19.9367Z" fill="#23479D"/>
<path d="M19.9236 0.751632C19.7669 4.97385 18.2976 8.86273 15.9141 12.0196C14.7713 13.5294 13.4261 14.8693 11.9111 16C8.58719 18.4836 4.46665 19.9477 0 19.9477V11.9346C6.33428 11.9346 11.5127 6.98691 11.898 0.751632C11.9176 0.503267 11.9241 0.254901 11.9241 0H19.8975C19.8975 0.254901 19.8975 0.503267 19.9236 0.751632Z" fill="#23479D"/>
<path d="M11.8851 0H11.9243C11.9243 0.254901 11.9178 0.503267 11.8981 0.751632C11.8916 0.503267 11.8851 0.254901 11.8851 0Z" fill="#23479D"/>
<path d="M31.8217 12.0521C27.3551 12.0521 23.2345 13.5161 19.9107 15.9998C18.3957 14.8691 17.0504 13.5292 15.9142 12.0194C18.2977 8.86256 19.767 4.97368 19.9237 0.751465C20.309 6.98675 25.4874 12.0521 31.8217 12.0521Z" fill="#4173B8"/>
<path d="M38.3583 13.7614L40.4676 16.3496C40.4676 16.3496 46.3643 12.0621 47.0108 9.56534C47.0108 9.56534 48.3234 9.33005 49.7209 11.0948L52.6072 15.317L55.1017 13.2059L52.4309 9.80064C52.4309 9.80064 51.053 7.12744 47.9969 7.17319C47.9969 7.17319 48.9438 3.42156 47.8663 2.04248H44.3792C44.3792 2.04248 46.7823 8.80717 38.3518 13.7614H38.3583Z" fill="#23479D"/>
<path d="M61.1749 7.51306V2.04248H57.6878V13.3758C57.6878 13.3758 57.9033 16.5196 56.9564 17.3823C56.9564 17.3823 54.4357 16.415 52.6465 16.415C50.374 16.415 44.856 17.683 44.856 23.1143C44.856 28.5457 50.4066 30.2712 52.6073 30.2712C54.808 30.2712 60.5676 28.5457 60.5676 23.5457C60.5676 23.5457 60.9986 20.9183 58.9742 19.1536C58.9742 19.1536 61.2141 17.8987 61.2141 14.4542V10.7483H65.8636V7.51306H61.1749ZM52.6987 27.2973C50.3283 27.2973 48.4084 25.513 48.4084 23.3169C48.4084 21.1209 50.3283 19.3431 52.6987 19.3431C55.0692 19.3431 56.9956 21.1274 56.9956 23.3169C56.9956 25.5065 55.0757 27.2973 52.6987 27.2973Z" fill="#111111"/>
<path d="M66.2294 13.7614L68.3387 16.3496C68.3387 16.3496 74.2354 12.0621 74.8819 9.56534C74.8819 9.56534 76.1945 9.33005 77.5919 11.0948L80.4783 15.317L82.9728 13.2059L80.302 9.80064C80.302 9.80064 78.9241 7.12744 75.868 7.17319C75.868 7.17319 76.8149 3.42156 75.7374 2.04248H72.2503C72.2503 2.04248 74.6534 8.80717 66.2229 13.7614H66.2294Z" fill="#6BBFED"/>
<path d="M93.4406 14.4542V2.04248H89.9143V6.74182H86.7406V2.04248H83.3776V15.3693H86.7406V9.80717H89.9143V13.3758C89.9143 13.3758 90.1298 16.5196 89.1829 17.3823C89.1829 17.3823 86.6622 16.415 84.873 16.415C82.6005 16.415 77.0825 17.683 77.0825 23.1143C77.0825 28.5457 82.6331 30.2712 84.8338 30.2712C87.0345 30.2712 92.7941 28.5457 92.7941 23.5457C92.7941 23.5457 93.2251 20.9183 91.2007 19.1536C91.2007 19.1536 93.4406 17.8987 93.4406 14.4542ZM84.9252 27.2973C82.5548 27.2973 80.6349 25.513 80.6349 23.3169C80.6349 21.1209 82.5548 19.3431 84.9252 19.3431C87.2957 19.3431 89.2221 21.1274 89.2221 23.3169C89.2221 25.5065 87.3022 27.2973 84.9252 27.2973Z" fill="#111111"/>
<path d="M122.343 13.0293H96.8556V16.1535H122.343V13.0293Z" fill="#111111"/>
<path d="M120.377 28.5259C119.254 29.4278 116.329 29.4605 116.329 29.4605H103.399C100.075 29.4605 100.395 26.735 100.395 26.735V22.0488H115.747V20.356H100.395V17.8135H117.876C120.528 17.8135 119.019 22.2971 118.784 23.6958C118.542 25.0945 115.747 24.7743 115.747 24.7743H103.947V26.735H116.329C118.412 26.735 119.215 26.1141 119.215 26.1141L120.377 28.5259Z" fill="#111111"/>
<path d="M116.127 4.83357H119.157V1.729H100.043V4.83357H103.079V6.26494C103.079 7.33684 103.321 8.19304 103.556 8.77474H100.043V11.8793H119.157V8.77474H115.65C115.885 8.19304 116.127 7.33684 116.127 6.26494V4.83357ZM107.01 8.77474C106.697 7.68978 106.645 5.87932 106.645 4.83357H112.561C112.561 5.87932 112.509 7.69631 112.189 8.77474H107.01Z" fill="#111111"/>
<path d="M135.665 5.61095H126.333V2.53906H139.217V12.4933C139.217 12.4933 135.632 13.4933 133.536 13.4933H129.82V18.5652H136.246C136.246 18.5652 140.896 18.6632 142.156 17.4018L143.22 20.0227C143.22 20.0227 140.38 21.6044 135.306 21.6044C130.232 21.6044 130.721 21.6044 130.721 21.6044C130.721 21.6044 126.327 21.8331 126.327 18.9573V10.3626H135.658V5.61095H135.665Z" fill="#111111"/>
<path d="M149.384 2.53906V24.807H145.479V12.624H140.765V9.51944H145.479V2.53906H149.384Z" fill="#111111"/>
<path d="M162.268 2.53906C162.268 2.53906 162.784 2.99004 162.784 4.53906C162.784 6.08807 163.365 11.5194 154.099 14.6894L155.327 17.7613C155.327 17.7613 162.366 15.1142 164.789 11.0031C164.789 11.0031 166.794 10.807 168.57 12.4606L174.127 17.7613L176.648 15.0815L170.353 9.51944C170.353 9.51944 169.321 8.32336 166.382 8.32336C166.382 8.32336 167.094 5.35605 166.252 2.53906H162.281H162.268Z" fill="#111111"/>
<path d="M178 21.2842H152.519V24.3888H178V21.2842Z" fill="#111111"/>
</svg>
